<svg xmlns="http://www.w3.org/2000/svg" xmlns:xlink="http://www.w3.org/1999/xlink" version="1.1" id="devices" x="0px" y="0px" width="100%" height="100%" viewBox="0 0 100 100" enable-background="new 0 0 100 100" xml:space="preserve">
<path d="M61.885,67.43H6.868C5,67.43,5,65.566,5,65.566v-1.247h26.77v0.623c0,0.345,0.277,0.624,0.622,0.624h7.469  c0.345,0,0.625-0.279,0.625-0.624v-0.623h20.641v1.357C61.127,66.368,61.421,66.989,61.885,67.43z M12.474,60.587V35.06v-0.625  c0-1.03,0.834-1.864,1.864-1.864h43.577c1.034,0,1.868,0.834,1.868,1.864v0.625v25.527c0,1.029-0.834,1.864-1.868,1.864h-0.621  h-42.33h-0.625C13.308,62.451,12.474,61.616,12.474,60.587z M14.963,59.961h42.33V35.06h-42.33V59.961z M81.126,67.43H65.877  c-1.4,0-2.537-1.136-2.537-2.536V37.566c0-1.4,1.137-2.537,2.537-2.537h16.9c1.396,0,2.536,1.136,2.536,2.537v5.265h-2.209v-3.509  H65.549v23.671h14.819v2.684C80.368,66.368,80.657,66.989,81.126,67.43z M75.333,65.222c0-0.532-0.434-0.958-0.962-0.958  c-0.531,0-0.961,0.426-0.961,0.958c0,0.531,0.43,0.962,0.961,0.962C74.899,66.184,75.333,65.753,75.333,65.222z M95,46.391v19.215  c0,1.007-0.817,1.823-1.826,1.823h-8.903c-1.004,0-1.825-0.816-1.825-1.823V46.391c0-1.009,0.821-1.828,1.825-1.828h8.903  C94.183,44.563,95,45.382,95,46.391z M86.642,46.576h4.166v-0.468h-4.166V46.576z M89.446,65.841c0-0.381-0.311-0.689-0.689-0.689  c-0.384,0-0.689,0.309-0.689,0.689c0,0.385,0.306,0.693,0.689,0.693C89.136,66.534,89.446,66.226,89.446,65.841z M93.876,47.657  H83.573v16.577h10.303V47.657z"/>
</svg>